<mxfile host="Electron" modified="2023-12-04T18:34:20.265Z" agent="Mozilla/5.0 (Windows NT 10.0; Win64; x64) AppleWebKit/537.36 (KHTML, like Gecko) draw.io/22.1.2 Chrome/114.0.5735.289 Electron/25.9.4 Safari/537.36" etag="uFFbt_639XismTzOZDun" version="22.1.2" type="device">
  <diagram name="Seite-1" id="LspFjHZZLfEEEBBvhe9F">
    <mxGraphModel dx="1981" dy="577" grid="1" gridSize="10" guides="1" tooltips="1" connect="1" arrows="1" fold="1" page="1" pageScale="1" pageWidth="827" pageHeight="1169" math="0" shadow="0">
      <root>
        <mxCell id="0" />
        <mxCell id="1" parent="0" />
        <mxCell id="N9SdQuqvLkkDDjXfbHDy-13" value="UserManagement" style="shape=umlLifeline;perimeter=lifelinePerimeter;whiteSpace=wrap;html=1;container=1;dropTarget=0;collapsible=0;recursiveResize=0;outlineConnect=0;portConstraint=eastwest;newEdgeStyle={&quot;curved&quot;:0,&quot;rounded&quot;:0};" vertex="1" parent="1">
          <mxGeometry x="-195" y="90" width="115" height="830" as="geometry" />
        </mxCell>
        <mxCell id="N9SdQuqvLkkDDjXfbHDy-26" value="" style="html=1;points=[[0,0,0,0,5],[0,1,0,0,-5],[1,0,0,0,5],[1,1,0,0,-5]];perimeter=orthogonalPerimeter;outlineConnect=0;targetShapes=umlLifeline;portConstraint=eastwest;newEdgeStyle={&quot;curved&quot;:0,&quot;rounded&quot;:0};" vertex="1" parent="N9SdQuqvLkkDDjXfbHDy-13">
          <mxGeometry x="53" y="135" width="10" height="155" as="geometry" />
        </mxCell>
        <mxCell id="N9SdQuqvLkkDDjXfbHDy-14" value="NotificationManager" style="shape=umlLifeline;perimeter=lifelinePerimeter;whiteSpace=wrap;html=1;container=1;dropTarget=0;collapsible=0;recursiveResize=0;outlineConnect=0;portConstraint=eastwest;newEdgeStyle={&quot;curved&quot;:0,&quot;rounded&quot;:0};" vertex="1" parent="1">
          <mxGeometry x="200" y="90" width="110" height="830" as="geometry" />
        </mxCell>
        <mxCell id="N9SdQuqvLkkDDjXfbHDy-77" value="" style="html=1;points=[[0,0,0,0,5],[0,1,0,0,-5],[1,0,0,0,5],[1,1,0,0,-5]];perimeter=orthogonalPerimeter;outlineConnect=0;targetShapes=umlLifeline;portConstraint=eastwest;newEdgeStyle={&quot;curved&quot;:0,&quot;rounded&quot;:0};" vertex="1" parent="N9SdQuqvLkkDDjXfbHDy-14">
          <mxGeometry x="50" y="716" width="10" height="34" as="geometry" />
        </mxCell>
        <mxCell id="N9SdQuqvLkkDDjXfbHDy-78" value="failed payment&amp;nbsp;" style="html=1;verticalAlign=bottom;endArrow=block;curved=0;rounded=0;entryX=0;entryY=0;entryDx=0;entryDy=5;exitX=1;exitY=1;exitDx=0;exitDy=-5;exitPerimeter=0;" edge="1" target="N9SdQuqvLkkDDjXfbHDy-77" parent="N9SdQuqvLkkDDjXfbHDy-14">
          <mxGeometry relative="1" as="geometry">
            <mxPoint x="-155" y="720" as="sourcePoint" />
          </mxGeometry>
        </mxCell>
        <mxCell id="N9SdQuqvLkkDDjXfbHDy-15" value="" style="shape=umlLifeline;perimeter=lifelinePerimeter;whiteSpace=wrap;html=1;container=1;dropTarget=0;collapsible=0;recursiveResize=0;outlineConnect=0;portConstraint=eastwest;newEdgeStyle={&quot;curved&quot;:0,&quot;rounded&quot;:0};participant=umlActor;" vertex="1" parent="1">
          <mxGeometry x="-310" y="90" width="20" height="830" as="geometry" />
        </mxCell>
        <mxCell id="N9SdQuqvLkkDDjXfbHDy-43" value="" style="html=1;points=[[0,0,0,0,5],[0,1,0,0,-5],[1,0,0,0,5],[1,1,0,0,-5]];perimeter=orthogonalPerimeter;outlineConnect=0;targetShapes=umlLifeline;portConstraint=eastwest;newEdgeStyle={&quot;curved&quot;:0,&quot;rounded&quot;:0};" vertex="1" parent="N9SdQuqvLkkDDjXfbHDy-15">
          <mxGeometry x="5" y="90" width="10" height="670" as="geometry" />
        </mxCell>
        <mxCell id="N9SdQuqvLkkDDjXfbHDy-16" value="User1" style="text;html=1;align=center;verticalAlign=middle;resizable=0;points=[];autosize=1;strokeColor=none;fillColor=none;" vertex="1" parent="1">
          <mxGeometry x="-330" y="69" width="60" height="30" as="geometry" />
        </mxCell>
        <mxCell id="N9SdQuqvLkkDDjXfbHDy-22" value="SubscriptionManagement" style="shape=umlLifeline;perimeter=lifelinePerimeter;whiteSpace=wrap;html=1;container=1;dropTarget=0;collapsible=0;recursiveResize=0;outlineConnect=0;portConstraint=eastwest;newEdgeStyle={&quot;curved&quot;:0,&quot;rounded&quot;:0};" vertex="1" parent="1">
          <mxGeometry x="-30" y="90" width="140" height="830" as="geometry" />
        </mxCell>
        <mxCell id="N9SdQuqvLkkDDjXfbHDy-23" value="" style="html=1;points=[[0,0,0,0,5],[0,1,0,0,-5],[1,0,0,0,5],[1,1,0,0,-5]];perimeter=orthogonalPerimeter;outlineConnect=0;targetShapes=umlLifeline;portConstraint=eastwest;newEdgeStyle={&quot;curved&quot;:0,&quot;rounded&quot;:0};" vertex="1" parent="N9SdQuqvLkkDDjXfbHDy-22">
          <mxGeometry x="65" y="110" width="10" height="620" as="geometry" />
        </mxCell>
        <mxCell id="N9SdQuqvLkkDDjXfbHDy-65" value="" style="html=1;points=[[0,0,0,0,5],[0,1,0,0,-5],[1,0,0,0,5],[1,1,0,0,-5]];perimeter=orthogonalPerimeter;outlineConnect=0;targetShapes=umlLifeline;portConstraint=eastwest;newEdgeStyle={&quot;curved&quot;:0,&quot;rounded&quot;:0};" vertex="1" parent="N9SdQuqvLkkDDjXfbHDy-22">
          <mxGeometry x="70" y="560" width="10" height="40" as="geometry" />
        </mxCell>
        <mxCell id="N9SdQuqvLkkDDjXfbHDy-66" value="checkPaymentstatus" style="html=1;align=left;spacingLeft=2;endArrow=block;rounded=0;edgeStyle=orthogonalEdgeStyle;curved=0;rounded=0;" edge="1" target="N9SdQuqvLkkDDjXfbHDy-65" parent="N9SdQuqvLkkDDjXfbHDy-22" source="N9SdQuqvLkkDDjXfbHDy-23">
          <mxGeometry relative="1" as="geometry">
            <mxPoint x="80" y="540" as="sourcePoint" />
            <Array as="points">
              <mxPoint x="110" y="550" />
              <mxPoint x="110" y="580" />
            </Array>
          </mxGeometry>
        </mxCell>
        <mxCell id="N9SdQuqvLkkDDjXfbHDy-69" value="return Paymentstatus" style="html=1;verticalAlign=bottom;endArrow=open;dashed=1;endSize=8;curved=0;rounded=0;exitX=1;exitY=1;exitDx=0;exitDy=-5;exitPerimeter=0;" edge="1" parent="N9SdQuqvLkkDDjXfbHDy-22" source="N9SdQuqvLkkDDjXfbHDy-65" target="N9SdQuqvLkkDDjXfbHDy-23">
          <mxGeometry y="60" relative="1" as="geometry">
            <mxPoint x="390" y="570" as="sourcePoint" />
            <mxPoint x="310" y="570" as="targetPoint" />
            <Array as="points">
              <mxPoint x="100" y="595" />
              <mxPoint x="100" y="620" />
            </Array>
            <mxPoint as="offset" />
          </mxGeometry>
        </mxCell>
        <mxCell id="N9SdQuqvLkkDDjXfbHDy-73" value="" style="html=1;points=[[0,0,0,0,5],[0,1,0,0,-5],[1,0,0,0,5],[1,1,0,0,-5]];perimeter=orthogonalPerimeter;outlineConnect=0;targetShapes=umlLifeline;portConstraint=eastwest;newEdgeStyle={&quot;curved&quot;:0,&quot;rounded&quot;:0};" vertex="1" parent="N9SdQuqvLkkDDjXfbHDy-22">
          <mxGeometry x="70" y="670" width="10" height="40" as="geometry" />
        </mxCell>
        <mxCell id="N9SdQuqvLkkDDjXfbHDy-80" value="" style="html=1;points=[[0,0,0,0,5],[0,1,0,0,-5],[1,0,0,0,5],[1,1,0,0,-5]];perimeter=orthogonalPerimeter;outlineConnect=0;targetShapes=umlLifeline;portConstraint=eastwest;newEdgeStyle={&quot;curved&quot;:0,&quot;rounded&quot;:0};" vertex="1" parent="N9SdQuqvLkkDDjXfbHDy-22">
          <mxGeometry x="70" y="280" width="10" height="40" as="geometry" />
        </mxCell>
        <mxCell id="N9SdQuqvLkkDDjXfbHDy-81" value="add to Subscriberlist" style="html=1;align=left;spacingLeft=2;endArrow=block;rounded=0;edgeStyle=orthogonalEdgeStyle;curved=0;rounded=0;" edge="1" target="N9SdQuqvLkkDDjXfbHDy-80" parent="N9SdQuqvLkkDDjXfbHDy-22" source="N9SdQuqvLkkDDjXfbHDy-23">
          <mxGeometry relative="1" as="geometry">
            <mxPoint x="78" y="270" as="sourcePoint" />
            <Array as="points">
              <mxPoint x="100" y="270" />
              <mxPoint x="100" y="300" />
            </Array>
            <mxPoint x="78" y="300.0018621973929" as="targetPoint" />
          </mxGeometry>
        </mxCell>
        <mxCell id="N9SdQuqvLkkDDjXfbHDy-24" value="subscribe" style="html=1;verticalAlign=bottom;endArrow=block;curved=0;rounded=0;entryX=0;entryY=0;entryDx=0;entryDy=5;" edge="1" target="N9SdQuqvLkkDDjXfbHDy-23" parent="1" source="N9SdQuqvLkkDDjXfbHDy-15">
          <mxGeometry x="0.5291" y="5" relative="1" as="geometry">
            <mxPoint x="-30" y="235" as="sourcePoint" />
            <mxPoint as="offset" />
          </mxGeometry>
        </mxCell>
        <mxCell id="N9SdQuqvLkkDDjXfbHDy-27" value="get CreditCard" style="html=1;verticalAlign=bottom;endArrow=block;curved=0;rounded=0;entryX=1;entryY=0;entryDx=0;entryDy=5;" edge="1" target="N9SdQuqvLkkDDjXfbHDy-26" parent="1" source="N9SdQuqvLkkDDjXfbHDy-22">
          <mxGeometry relative="1" as="geometry">
            <mxPoint x="-60" y="260" as="sourcePoint" />
          </mxGeometry>
        </mxCell>
        <mxCell id="N9SdQuqvLkkDDjXfbHDy-29" value="alt" style="shape=umlFrame;whiteSpace=wrap;html=1;pointerEvents=0;" vertex="1" parent="1">
          <mxGeometry x="-450" y="290" width="1030" height="180" as="geometry" />
        </mxCell>
        <mxCell id="N9SdQuqvLkkDDjXfbHDy-31" value="no creditCard" style="text;html=1;align=center;verticalAlign=middle;resizable=0;points=[];autosize=1;strokeColor=none;fillColor=none;" vertex="1" parent="1">
          <mxGeometry x="-400" y="290" width="100" height="30" as="geometry" />
        </mxCell>
        <mxCell id="N9SdQuqvLkkDDjXfbHDy-28" value="error: no CreditCard" style="html=1;verticalAlign=bottom;endArrow=open;dashed=1;endSize=8;curved=0;rounded=0;exitX=1;exitY=1;exitDx=0;exitDy=-5;" edge="1" parent="1">
          <mxGeometry relative="1" as="geometry">
            <mxPoint x="40" y="320.00000000000006" as="targetPoint" />
            <mxPoint x="-130" y="320.00000000000006" as="sourcePoint" />
          </mxGeometry>
        </mxCell>
        <mxCell id="N9SdQuqvLkkDDjXfbHDy-33" value="" style="line;strokeWidth=1;fillColor=none;align=left;verticalAlign=middle;spacingTop=-1;spacingLeft=3;spacingRight=3;rotatable=0;labelPosition=right;points=[];portConstraint=eastwest;strokeColor=inherit;" vertex="1" parent="1">
          <mxGeometry x="-450" y="340" width="1030" height="8" as="geometry" />
        </mxCell>
        <mxCell id="N9SdQuqvLkkDDjXfbHDy-34" value="" style="html=1;verticalAlign=bottom;endArrow=block;curved=0;rounded=0;entryX=0;entryY=0;entryDx=0;entryDy=5;entryPerimeter=0;" edge="1" parent="1" target="N9SdQuqvLkkDDjXfbHDy-19">
          <mxGeometry relative="1" as="geometry">
            <mxPoint x="-290" y="182" as="sourcePoint" />
            <mxPoint x="-140" y="183.5" as="targetPoint" />
          </mxGeometry>
        </mxCell>
        <mxCell id="N9SdQuqvLkkDDjXfbHDy-19" value="" style="html=1;points=[[0,0,0,0,5],[0,1,0,0,-5],[1,0,0,0,5],[1,1,0,0,-5]];perimeter=orthogonalPerimeter;outlineConnect=0;targetShapes=umlLifeline;portConstraint=eastwest;newEdgeStyle={&quot;curved&quot;:0,&quot;rounded&quot;:0};" vertex="1" parent="1">
          <mxGeometry x="-140" y="177" width="10" height="10" as="geometry" />
        </mxCell>
        <mxCell id="N9SdQuqvLkkDDjXfbHDy-35" value="opt" style="shape=umlFrame;whiteSpace=wrap;html=1;pointerEvents=0;" vertex="1" parent="1">
          <mxGeometry x="-390" y="150" width="310" height="40" as="geometry" />
        </mxCell>
        <mxCell id="N9SdQuqvLkkDDjXfbHDy-36" value="CreditCard" style="html=1;verticalAlign=bottom;endArrow=open;dashed=1;endSize=8;curved=0;rounded=0;" edge="1" parent="1" source="N9SdQuqvLkkDDjXfbHDy-26" target="N9SdQuqvLkkDDjXfbHDy-23">
          <mxGeometry relative="1" as="geometry">
            <mxPoint x="60" y="310" as="sourcePoint" />
            <mxPoint x="-20" y="310" as="targetPoint" />
            <Array as="points">
              <mxPoint x="-130" y="370" />
            </Array>
          </mxGeometry>
        </mxCell>
        <mxCell id="N9SdQuqvLkkDDjXfbHDy-37" value="CreditCard ok" style="text;html=1;align=center;verticalAlign=middle;resizable=0;points=[];autosize=1;strokeColor=none;fillColor=none;" vertex="1" parent="1">
          <mxGeometry x="-460" y="340" width="100" height="30" as="geometry" />
        </mxCell>
        <mxCell id="N9SdQuqvLkkDDjXfbHDy-39" value="" style="html=1;points=[[0,0,0,0,5],[0,1,0,0,-5],[1,0,0,0,5],[1,1,0,0,-5]];perimeter=orthogonalPerimeter;outlineConnect=0;targetShapes=umlLifeline;portConstraint=eastwest;newEdgeStyle={&quot;curved&quot;:0,&quot;rounded&quot;:0};" vertex="1" parent="1">
          <mxGeometry x="250" y="410" width="10" height="40" as="geometry" />
        </mxCell>
        <mxCell id="N9SdQuqvLkkDDjXfbHDy-40" value="succesful registration" style="html=1;verticalAlign=bottom;endArrow=block;curved=0;rounded=0;entryX=0;entryY=0;entryDx=0;entryDy=5;" edge="1" parent="1">
          <mxGeometry relative="1" as="geometry">
            <mxPoint x="45" y="412" as="sourcePoint" />
            <mxPoint x="250" y="412" as="targetPoint" />
          </mxGeometry>
        </mxCell>
        <mxCell id="N9SdQuqvLkkDDjXfbHDy-42" value="send email (succesful registration)" style="html=1;verticalAlign=bottom;endArrow=block;curved=0;rounded=0;" edge="1" parent="1">
          <mxGeometry width="80" relative="1" as="geometry">
            <mxPoint x="250" y="440" as="sourcePoint" />
            <mxPoint x="-300.18965517241395" y="440" as="targetPoint" />
          </mxGeometry>
        </mxCell>
        <mxCell id="N9SdQuqvLkkDDjXfbHDy-44" value="register CreditCard" style="text;html=1;align=center;verticalAlign=middle;resizable=0;points=[];autosize=1;strokeColor=none;fillColor=none;" vertex="1" parent="1">
          <mxGeometry x="-280" y="158" width="120" height="30" as="geometry" />
        </mxCell>
        <mxCell id="N9SdQuqvLkkDDjXfbHDy-46" value="" style="shape=umlLifeline;perimeter=lifelinePerimeter;whiteSpace=wrap;html=1;container=1;dropTarget=0;collapsible=0;recursiveResize=0;outlineConnect=0;portConstraint=eastwest;newEdgeStyle={&quot;curved&quot;:0,&quot;rounded&quot;:0};participant=umlActor;" vertex="1" parent="1">
          <mxGeometry x="420" y="85" width="25" height="835" as="geometry" />
        </mxCell>
        <mxCell id="N9SdQuqvLkkDDjXfbHDy-48" value="" style="html=1;points=[[0,0,0,0,5],[0,1,0,0,-5],[1,0,0,0,5],[1,1,0,0,-5]];perimeter=orthogonalPerimeter;outlineConnect=0;targetShapes=umlLifeline;portConstraint=eastwest;newEdgeStyle={&quot;curved&quot;:0,&quot;rounded&quot;:0};" vertex="1" parent="N9SdQuqvLkkDDjXfbHDy-46">
          <mxGeometry x="10" y="415" width="10" height="95" as="geometry" />
        </mxCell>
        <mxCell id="N9SdQuqvLkkDDjXfbHDy-56" value="" style="html=1;points=[[0,0,0,0,5],[0,1,0,0,-5],[1,0,0,0,5],[1,1,0,0,-5]];perimeter=orthogonalPerimeter;outlineConnect=0;targetShapes=umlLifeline;portConstraint=eastwest;newEdgeStyle={&quot;curved&quot;:0,&quot;rounded&quot;:0};" vertex="1" parent="N9SdQuqvLkkDDjXfbHDy-46">
          <mxGeometry x="15" y="470" width="10" height="10" as="geometry" />
        </mxCell>
        <mxCell id="N9SdQuqvLkkDDjXfbHDy-47" value="Manager" style="text;html=1;align=center;verticalAlign=middle;resizable=0;points=[];autosize=1;strokeColor=none;fillColor=none;" vertex="1" parent="1">
          <mxGeometry x="395" y="58" width="70" height="30" as="geometry" />
        </mxCell>
        <mxCell id="N9SdQuqvLkkDDjXfbHDy-49" value="getSubscribers" style="html=1;verticalAlign=bottom;endArrow=block;curved=0;rounded=0;" edge="1" parent="1">
          <mxGeometry x="0.4737" relative="1" as="geometry">
            <mxPoint x="50" y="510" as="sourcePoint" />
            <mxPoint x="45" y="510" as="targetPoint" />
            <Array as="points">
              <mxPoint x="430" y="510" />
            </Array>
            <mxPoint as="offset" />
          </mxGeometry>
        </mxCell>
        <mxCell id="N9SdQuqvLkkDDjXfbHDy-53" value="return Subscribers" style="html=1;verticalAlign=bottom;endArrow=block;curved=0;rounded=0;" edge="1" parent="1" source="N9SdQuqvLkkDDjXfbHDy-23" target="N9SdQuqvLkkDDjXfbHDy-48">
          <mxGeometry width="80" relative="1" as="geometry">
            <mxPoint x="50" y="550" as="sourcePoint" />
            <mxPoint x="435" y="550" as="targetPoint" />
            <Array as="points">
              <mxPoint x="135" y="550" />
            </Array>
          </mxGeometry>
        </mxCell>
        <mxCell id="N9SdQuqvLkkDDjXfbHDy-58" value="updatedPaymentstatus" style="html=1;verticalAlign=bottom;endArrow=block;curved=0;rounded=0;" edge="1" parent="1">
          <mxGeometry width="80" relative="1" as="geometry">
            <mxPoint x="430" y="589.5" as="sourcePoint" />
            <mxPoint x="45" y="589.5" as="targetPoint" />
          </mxGeometry>
        </mxCell>
        <mxCell id="N9SdQuqvLkkDDjXfbHDy-60" value="loop" style="shape=umlFrame;whiteSpace=wrap;html=1;pointerEvents=0;" vertex="1" parent="1">
          <mxGeometry x="-450" y="610" width="950" height="260" as="geometry" />
        </mxCell>
        <mxCell id="N9SdQuqvLkkDDjXfbHDy-57" value="update Paymentstatus" style="html=1;align=left;spacingLeft=2;endArrow=block;rounded=0;edgeStyle=orthogonalEdgeStyle;curved=0;rounded=0;" edge="1" parent="1">
          <mxGeometry relative="1" as="geometry">
            <mxPoint x="440" y="532.5" as="sourcePoint" />
            <Array as="points">
              <mxPoint x="470" y="562.5" />
            </Array>
            <mxPoint x="445" y="562.4999999999999" as="targetPoint" />
          </mxGeometry>
        </mxCell>
        <mxCell id="N9SdQuqvLkkDDjXfbHDy-67" value="(for each payment)" style="text;html=1;align=center;verticalAlign=middle;resizable=0;points=[];autosize=1;strokeColor=none;fillColor=none;" vertex="1" parent="1">
          <mxGeometry x="-450" y="640" width="120" height="30" as="geometry" />
        </mxCell>
        <mxCell id="N9SdQuqvLkkDDjXfbHDy-68" value="opt" style="shape=umlFrame;whiteSpace=wrap;html=1;pointerEvents=0;" vertex="1" parent="1">
          <mxGeometry x="-440" y="720" width="940" height="140" as="geometry" />
        </mxCell>
        <mxCell id="N9SdQuqvLkkDDjXfbHDy-70" value="payed = false" style="text;html=1;align=center;verticalAlign=middle;resizable=0;points=[];autosize=1;strokeColor=none;fillColor=none;" vertex="1" parent="1">
          <mxGeometry x="32" y="713" width="100" height="30" as="geometry" />
        </mxCell>
        <mxCell id="N9SdQuqvLkkDDjXfbHDy-74" value="remove from Subscriberlist" style="html=1;align=left;spacingLeft=2;endArrow=block;rounded=0;edgeStyle=orthogonalEdgeStyle;curved=0;rounded=0;" edge="1" target="N9SdQuqvLkkDDjXfbHDy-73" parent="1">
          <mxGeometry relative="1" as="geometry">
            <mxPoint x="46" y="750" as="sourcePoint" />
            <Array as="points">
              <mxPoint x="76" y="780" />
            </Array>
          </mxGeometry>
        </mxCell>
        <mxCell id="N9SdQuqvLkkDDjXfbHDy-79" value="send email(failed payment)" style="html=1;verticalAlign=bottom;endArrow=open;dashed=1;endSize=8;curved=0;rounded=0;exitX=0;exitY=1;exitDx=0;exitDy=-5;" edge="1" source="N9SdQuqvLkkDDjXfbHDy-77" parent="1" target="N9SdQuqvLkkDDjXfbHDy-15">
          <mxGeometry relative="1" as="geometry">
            <mxPoint x="180" y="890" as="targetPoint" />
          </mxGeometry>
        </mxCell>
      </root>
    </mxGraphModel>
  </diagram>
</mxfile>
